<?xml version="1.0" encoding="UTF-8"?>
<!DOCTYPE svg PUBLIC "-//W3C//DTD SVG 1.1//EN" "http://www.w3.org/Graphics/SVG/1.1/DTD/svg11.dtd">
<svg xmlns="http://www.w3.org/2000/svg" version="1.1" width="381px" height="100px" style="shape-rendering:geometricPrecision; text-rendering:geometricPrecision; image-rendering:optimizeQuality; fill-rule:evenodd; clip-rule:evenodd" xmlns:xlink="http://www.w3.org/1999/xlink">
<g><path style="opacity:0.955" fill="#09747c" d="M 220.5,-0.5 C 231.5,-0.5 242.5,-0.5 253.5,-0.5C 256.682,14.229 260.182,28.8957 264,43.5C 268.147,28.9116 271.98,14.245 275.5,-0.5C 286.5,-0.5 297.5,-0.5 308.5,-0.5C 308.5,25.5 308.5,51.5 308.5,77.5C 301.5,77.5 294.5,77.5 287.5,77.5C 287.667,59.8302 287.5,42.1635 287,24.5C 282.668,41.8285 278.335,59.1618 274,76.5C 267.59,77.4777 261.09,77.811 254.5,77.5C 250.005,59.519 245.505,41.519 241,23.5C 240.5,41.4969 240.333,59.4969 240.5,77.5C 233.833,77.5 227.167,77.5 220.5,77.5C 220.5,51.5 220.5,25.5 220.5,-0.5 Z"/></g>
<g><path style="opacity:0.962" fill="#09747c" d="M 314.5,-0.5 C 331.167,-0.5 347.833,-0.5 364.5,-0.5C 372.405,1.73787 377.738,6.73787 380.5,14.5C 380.5,20.5 380.5,26.5 380.5,32.5C 377.71,39.4545 372.71,44.2879 365.5,47C 357.245,49.3996 348.911,49.8996 340.5,48.5C 339.502,58.1437 339.168,67.8104 339.5,77.5C 331.167,77.5 322.833,77.5 314.5,77.5C 314.5,51.5 314.5,25.5 314.5,-0.5 Z M 339.5,15.5 C 343.897,15.4246 348.23,15.9246 352.5,17C 357.986,22.0814 357.653,26.7481 351.5,31C 347.514,31.4988 343.514,31.6655 339.5,31.5C 339.5,26.1667 339.5,20.8333 339.5,15.5 Z"/></g>
<g><path style="opacity:0.89" fill="#09747c" d="M -0.5,48.5 C -0.5,43.5 -0.5,38.5 -0.5,33.5C 4.1169,11.4038 17.7836,1.2371 40.5,3C 59.6532,8.18487 68.9865,20.8515 68.5,41C 67.2722,67.897 53.2722,80.2303 26.5,78C 17.9051,76.1228 11.0718,71.6228 6,64.5C 2.93542,59.3931 0.768757,54.0598 -0.5,48.5 Z M 27.5,12.5 C 44.165,10.0709 53.9983,17.0709 57,33.5C 59.4997,46.3948 55.9997,57.2282 46.5,66C 34.3934,71.6453 23.8934,69.4787 15,59.5C 9.84422,48.4671 9.17755,37.1337 13,25.5C 16.1625,19.1641 20.9958,14.8308 27.5,12.5 Z"/></g>
<g><path style="opacity:0.886" fill="#09747c" d="M 83.5,99.5 C 80.1667,99.5 76.8333,99.5 73.5,99.5C 73.5,74.1667 73.5,48.8333 73.5,23.5C 76.5,23.5 79.5,23.5 82.5,23.5C 82.3398,25.1992 82.5065,26.8659 83,28.5C 91.7049,21.092 100.872,20.592 110.5,27C 120.946,40.3079 122.113,54.4746 114,69.5C 105.063,79.7959 95.0633,81.1292 84,73.5C 83.5002,82.1603 83.3336,90.8269 83.5,99.5 Z M 94.5,30.5 C 99.2299,30.7816 103.063,32.7816 106,36.5C 110.347,45.8612 110.347,55.1946 106,64.5C 98.4817,72.8071 91.4817,72.4737 85,63.5C 81.5128,54.3504 81.8461,45.3504 86,36.5C 88.3218,33.6047 91.1552,31.6047 94.5,30.5 Z"/></g>
<g><path style="opacity:0.876" fill="#09747c" d="M 140.5,22.5 C 160.702,22.7078 170.369,33.0411 169.5,53.5C 156.496,53.3334 143.496,53.5001 130.5,54C 132.808,67.6491 140.475,72.3158 153.5,68C 155.787,65.9302 157.453,63.4302 158.5,60.5C 162.289,59.2306 165.955,59.5639 169.5,61.5C 163.966,75.7498 153.633,81.2498 138.5,78C 128.654,75.1633 122.82,68.6633 121,58.5C 118.648,46.205 121.815,35.705 130.5,27C 133.703,24.9971 137.036,23.4971 140.5,22.5 Z M 140.5,31.5 C 151.035,29.7149 157.035,34.0482 158.5,44.5C 149.475,44.8315 140.475,44.4982 131.5,43.5C 132.587,37.9635 135.587,33.9635 140.5,31.5 Z"/></g>
<g><path style="opacity:0.883" fill="#09747c" d="M 193.5,22.5 C 202.613,21.1411 209.779,24.1411 215,31.5C 216.452,46.762 216.952,62.0953 216.5,77.5C 213.167,77.5 209.833,77.5 206.5,77.5C 206.667,64.1625 206.5,50.8292 206,37.5C 204.203,33.3941 201.037,31.3941 196.5,31.5C 191.131,32.0465 187.298,34.7131 185,39.5C 183.626,52.1202 183.126,64.7869 183.5,77.5C 180.167,77.5 176.833,77.5 173.5,77.5C 173.5,59.5 173.5,41.5 173.5,23.5C 176.5,23.5 179.5,23.5 182.5,23.5C 182.338,25.5273 182.505,27.5273 183,29.5C 185.998,26.2623 189.498,23.9289 193.5,22.5 Z"/></g>
<g><path style="opacity:0.51" fill="#09747c" d="M 349.5,67.5 C 356.251,67.3802 358.251,70.2136 355.5,76C 351.33,77.7558 348.33,76.4225 346.5,72C 347.315,70.3566 348.315,68.8566 349.5,67.5 Z"/></g>
<g><path style="opacity:0.954" fill="#09747c" d="M -0.5,86.5 C 21.8333,86.5 44.1667,86.5 66.5,86.5C 66.5,89.1667 66.5,91.8333 66.5,94.5C 44.1667,94.5 21.8333,94.5 -0.5,94.5C -0.5,91.8333 -0.5,89.1667 -0.5,86.5 Z"/></g>
<g><path style="opacity:0.936" fill="#09747c" d="M 380.5,86.5 C 380.5,89.1667 380.5,91.8333 380.5,94.5C 283.167,94.5 185.833,94.5 88.5,94.5C 88.5,91.8333 88.5,89.1667 88.5,86.5C 185.833,86.5 283.167,86.5 380.5,86.5 Z"/></g>
</svg>
