<?xml version="1.0" standalone="no"?>
<!DOCTYPE svg PUBLIC "-//W3C//DTD SVG 20010904//EN"
 "http://www.w3.org/TR/2001/REC-SVG-20010904/DTD/svg10.dtd">
<svg version="1.0" xmlns="http://www.w3.org/2000/svg"
 width="300.000000pt" height="300.000000pt" viewBox="0 0 300.000000 300.000000"
 preserveAspectRatio="xMidYMid meet">

<g transform="translate(0.000000,300.000000) scale(0.100000,-0.100000)"
fill="#000000" stroke="none">
<path d="M0 1500 l0 -1500 1500 0 1500 0 0 1500 0 1500 -1500 0 -1500 0 0
-1500z m1547 1094 c157 -112 256 -303 284 -548 22 -199 -12 -334 -179 -701
-94 -207 -140 -324 -156 -387 l-6 -28 55 0 56 0 -3 -42 c-3 -38 -6 -43 -32
-48 -38 -7 -53 -31 -40 -67 9 -28 11 -28 102 -31 l92 -3 0 -209 0 -210 -280 0
-280 0 0 210 0 210 83 0 c70 0 87 3 101 19 31 34 16 69 -36 85 -13 4 -18 16
-18 46 l0 40 59 0 60 0 5 43 c3 23 12 161 22 307 23 366 29 817 15 993 -11
127 -43 344 -57 389 -5 16 -1 16 42 -3 26 -11 76 -40 111 -65z"/>
<path d="M1291 626 c-8 -9 -11 -46 -9 -103 l3 -88 134 -3 133 -3 -35 42 c-20
23 -48 70 -64 105 l-27 64 -62 0 c-41 0 -66 -5 -73 -14z"/>
<path d="M1490 635 c0 -21 90 -165 103 -165 11 0 8 129 -3 151 -8 14 -21 19
-55 19 -25 0 -45 -2 -45 -5z"/>
</g>
</svg>
