<?xml version="1.0" standalone="no"?>
<!DOCTYPE svg PUBLIC "-//W3C//DTD SVG 20010904//EN"
 "http://www.w3.org/TR/2001/REC-SVG-20010904/DTD/svg10.dtd">
<svg version="1.0" xmlns="http://www.w3.org/2000/svg"
 width="400.000000pt" height="400.000000pt" viewBox="0 0 400.000000 400.000000"
 preserveAspectRatio="xMidYMid meet">

<g transform="translate(0.000000,400.000000) scale(0.100000,-0.100000)"
fill="#000000" stroke="none">
<path d="M1830 3871 c0 -5 7 -38 15 -73 57 -246 86 -560 92 -991 5 -348 -3
-578 -42 -1142 -8 -115 -17 -264 -20 -330 -3 -66 -8 -148 -11 -182 l-6 -63
-94 0 -94 0 0 -68 0 -68 45 -12 c55 -14 73 -44 59 -94 -16 -55 -56 -70 -197
-73 l-122 -2 -3 -326 -2 -327 455 0 455 0 0 324 0 324 -32 6 c-18 3 -78 5
-134 5 -67 -1 -108 3 -122 12 -42 26 -56 103 -24 132 10 9 37 19 60 23 l42 7
0 68 0 69 -80 0 c-97 0 -95 -7 -41 151 53 156 63 181 210 502 186 409 237 544
276 732 51 243 14 579 -89 825 -103 242 -272 428 -491 537 -74 38 -105 47
-105 34z m80 -3313 c26 -75 96 -192 139 -232 17 -17 31 -33 31 -38 0 -4 -89
-8 -197 -8 -169 0 -199 2 -215 17 -16 14 -18 33 -18 158 0 96 4 145 12 153 8
8 49 12 119 12 l106 0 23 -62z m229 48 c8 -9 11 -55 9 -137 l-3 -124 -49 65
c-45 61 -86 131 -106 186 l-10 24 74 0 c51 0 77 -4 85 -14z"/>
</g>
</svg>
